# xmcd
#
# Track frame offsets:
# 150
# 17591
# 34438
# 49366
# 63596
#
# Disc length: 1028 seconds
#
#
# Revision: 0
# Processed by: cddbd v1.5.1PL2 Copyright (c) Steve Scherf et al.
# Submitted via: FreeRIP 2.60 
#
DISCID=43040205
DTITLE=Lonny Ayres - Changing Lanes
DYEAR=2005
DGENRE=Country
TTITLE0=ChangingLanesNovMix
TTITLE1=NowhereUSANovMix
TTITLE2=CrackedWindshieldNovMix
TTITLE3=Ain'tGotYouNovMix
TTITLE4=FrontPorchNovMix
EXTD=
EXTT0=
EXTT1=
EXTT2=
EXTT3=
EXTT4=
PLAYORDER=
